<svg xmlns="http://www.w3.org/2000/svg" xmlns:xlink="http://www.w3.org/1999/xlink" width="16" height="16" viewBox="0 0 16 16">
  <defs>
    <clipPath id="clip-path">
      <rect id="사각형_738" data-name="사각형 738" width="16" height="16" fill="none"/>
    </clipPath>
  </defs>
  <g id="그룹_1625" data-name="그룹 1625" opacity="0.8">
    <g id="그룹_1624" data-name="그룹 1624" clip-path="url(#clip-path)">
      <path id="패스_5" data-name="패스 5" d="M11.07,0H4.93A4.93,4.93,0,0,0,0,4.929v6.14A4.929,4.929,0,0,0,4.93,16H11.07A4.929,4.929,0,0,0,16,11.07V4.929A4.93,4.93,0,0,0,11.07,0M14.464,10.48a3.983,3.983,0,0,1-3.983,3.983H5.519A3.983,3.983,0,0,1,1.535,10.48V5.518A3.984,3.984,0,0,1,5.519,1.534h4.962a3.984,3.984,0,0,1,3.983,3.983Z" transform="translate(0 0.001)" fill="#fff"/>
      <path id="패스_6" data-name="패스 6" d="M55.979,49.357a4.214,4.214,0,1,0,4.214,4.214,4.214,4.214,0,0,0-4.214-4.214m0,6.75a2.536,2.536,0,1,1,2.535-2.536,2.536,2.536,0,0,1-2.535,2.536" transform="translate(-47.764 -45.543)" fill="#fff"/>
      <path id="패스_7" data-name="패스 7" d="M145.355,35.7a1.072,1.072,0,1,1-1.072-1.072,1.072,1.072,0,0,1,1.072,1.072" transform="translate(-132.146 -31.951)" fill="#fff"/>
    </g>
  </g>
</svg>
